<svg version="1.2" xmlns="http://www.w3.org/2000/svg" viewBox="0 0 20 20" width="20" height="20">
	<title>horserace-svg</title>
	<style>
		.s0 { fill: #000000 } 
	</style>
	<filter id="f0">
		<feFlood flood-color="#c6c6cb" flood-opacity="1" />
		<feBlend mode="normal" in2="SourceGraphic"/>
		<feComposite in2="SourceAlpha" operator="in" />
	</filter>
	<g id="Layer" filter="url(#f0)">
		<path id="Layer" fill-rule="evenodd" class="s0" d="m20 9.2c-0.1 0.3-0.3 0.6-1.3 0.5-0.1 0.8-0.9 1.5-2 1.5q-0.5 0-0.9-0.2l-1.6 2.5v5.3c0 0.4-0.4 0.7-0.9 0.7-0.4 0-0.8-0.3-0.8-0.7v-4.8h-5.5l-0.2 1.9 2 2.5c0.3 0.3 0.1 0.7-0.2 0.9q-0.3 0.1-0.5 0.1c-0.3 0-0.5-0.1-0.7-0.3l-2.2-2.7q-0.1-0.2-0.1-0.4l0.2-2h-0.2l-1.3 2v2.8c0 0.4-0.4 0.7-0.9 0.7-0.4 0-0.8-0.3-0.8-0.7v-3q0-0.1 0.1-0.3l1-1.5v-3.1c-0.9 0.9-0.7 1.8-0.7 2.7 0 0.3-0.4 0.5-0.7 0.5h-0.1c-0.3 0-0.6-0.2-0.6-0.5-0.2-1-0.3-3.5 2.1-3.4l8.6 0.1 5.2-4.3-0.2 1 2.7 1.4c0.3 0.2 0.5 0.5 0.5 0.8zm-1.7 0.5q-0.6-0.1-1.4-0.3l-0.9 1.3q0.3 0.1 0.7 0.2c0.9 0 1.5-0.6 1.6-1.2z"/>
		<path id="Layer" class="s0" d="m5 9l1.1-1.8 0.4-0.1v1.9h3.2v-1.5c0.8 0.5 0.4 0.4 2.1 0.7l1.3-1-2.1-0.4-1.4-1c-0.2-0.4-0.8-0.8-1.5-0.8-0.6 0-1 0.2-1.3 0.6l-1.6 0.7q-0.3 0-0.4 0.2l-1.2 2q-0.2 0.2-0.1 0.5z"/>
		<path id="Layer" class="s0" d="m8.2 4c-1.1 0-1.9-0.7-1.9-1.5 0-0.8 0.8-1.5 1.9-1.5 1 0 1.8 0.7 1.8 1.5 0 0.8-0.8 1.5-1.8 1.5z"/>
	</g>
</svg>