<svg id="SvgjsSvg1001" width="288" height="288" xmlns="http://www.w3.org/2000/svg" version="1.1" xmlns:xlink="http://www.w3.org/1999/xlink" xmlns:svgjs="http://svgjs.com/svgjs"><defs id="SvgjsDefs1002"></defs><g id="SvgjsG1008" transform="matrix(1,0,0,1,0,0)"><svg xmlns="http://www.w3.org/2000/svg" width="288" height="288" viewBox="0 0 18.001 19.995"><g data-name="Group 1" transform="translate(-704 -380)" fill="#000000" class="color000 svgShape"><path fill="#000000" fill-rule="evenodd" d="M710,382.51V380h5.7v2.41a8.933,8.933,0,0,1,1.4.57,9.3,9.3,0,0,1,1.446.893l1.465-1.457,1.466,1.457-1.466,1.456q.255.318.479.656a8.87,8.87,0,0,1,1.51,4.963v.1a8.919,8.919,0,0,1-2.636,6.327,9.038,9.038,0,0,1-12.728,0A8.921,8.921,0,0,1,704,390.952v-.005a8.871,8.871,0,0,1,1.51-4.963c.15-.225.309-.444.479-.656l-1.466-1.455,1.467-1.457,1.465,1.457a9.3,9.3,0,0,1,1.446-.893,8.846,8.846,0,0,1,1.1-.47Zm10.325,8.542a7.3,7.3,0,0,0-6.593-7.283H713a7.4,7.4,0,0,0-7.326,7.283,7.326,7.326,0,1,0,14.651,0Zm-13.29,0a5.825,5.825,0,1,1,4.684,5.715A5.8,5.8,0,0,1,707.035,391.052Zm7,1.173v-5h-2v5Z" data-name="liveBetting a" class="colorfff svgShape"></path></g></svg></g></svg>